#!OML:ASF I:\Actors\actors\Patient Classification 1\Patient 1\Session 1\Subject1.ASF
:FULLY-SPECIFIED
:DEGREES
1262
root 0.826949 17.4086 9.5559 8.71202 2.05921 -8.56517
lowerback -3.01335 0.690309 5.80975
upperback -11.3906 1.29696 2.14025
thorax -10.3958 0.231132 -1.01791
lowerneck -13.0598 -5.25185 -1.53588
upperneck 23.8215 -7.81196 2.79112
head 9.88599 -3.46148 0.259563
rclavicle -1.49089e-016 -2.18663e-014
rhumerus -54.1515 5.5467 -93.4929
rradius 112.374
rwrist -30.1824
rhand 17.6642 -66.8481
rfingers 7.12502
rthumb 42.3532 811.319
lclavicle -1.49089e-016 -2.18663e-014
lhumerus -52.5009 20.3885 71.3358
lradius 92.079
lwrist 63.558
lhand -26.4943 17.8024
lfingers 7.12502
lthumb 0.0683616 47.7821
rfemur -0.966581 23.1042 25.4075
rtibia 2.60693
rfoot -15.6567 -28.6713
rtoes 5.52845
lfemur 6.20458 -43.2304 -12.4972
ltibia -4.41143
lfoot -15.2047 48.2694
ltoes 0.481142
1263
root 0.822364 17.4076 9.55771 8.76977 1.96942 -8.59928
lowerback -3.07894 0.703005 5.75374
upperback -11.393 1.31004 2.18127
thorax -10.3596 0.245919 -0.942996
lowerneck -12.9969 -5.23744 -1.3967
upperneck 23.8289 -7.78139 2.6221
head 9.86199 -3.45526 0.18426
rclavicle 2.73329e-015 5.56597e-015
rhumerus -54.0596 5.7264 -93.6095
rradius 112.42
rwrist -30.1098
rhand 17.6306 -66.8849
rfingers 7.12502
rthumb 42.3217 811.366
lclavicle 2.73329e-015 5.56597e-015
lhumerus -52.5901 20.3464 71.2489
lradius 92.135
lwrist 63.724
lhand -26.545 17.7212
lfingers 7.12502
lthumb 0.0193685 47.701
rfemur -1.04293 23.24 25.4392
rtibia 2.63113
rfoot -15.6769 -28.7045
rtoes 5.55816
lfemur 6.17745 -43.1828 -12.3894
ltibia -4.48122
lfoot -15.3266 48.2966
ltoes 0.694013
1264
root 0.821032 17.4066 9.55949 8.82816 1.89152 -8.60831
lowerback -3.1495 0.724898 5.73968
upperback -11.3949 1.33411 2.19344
thorax -10.3185 0.260663 -0.922764
lowerneck -12.981 -5.23861 -1.35165
upperneck 23.8847 -7.78649 2.58169
head 9.8752 -3.45747 0.1621
rclavicle -2.88238e-015 -3.04141e-014
rhumerus -53.9562 5.91083 -93.6731
rradius 112.417
rwrist -30.0794
rhand 17.7773 -66.8531
rfingers 7.12502
rthumb 42.4592 811.287
lclavicle -2.88238e-015 -3.04141e-014
lhumerus -52.6512 20.3177 71.165
lradius 92.1797
lwrist 63.8686
lhand -26.5396 17.7531
lfingers 7.12502
lthumb 0.024615 47.7328
rfemur -1.13005 23.2272 25.4152
rtibia 2.64898
rfoot -15.587 -28.6369
rtoes 5.217
lfemur 6.25499 -43.457 -12.4561
ltibia -4.51063
lfoot -15.6093 48.6176
ltoes 1.0072
1265
root 0.820477 17.4061 9.56109 8.85876 1.88947 -8.58804
lowerback -3.19536 0.738208 5.73037
upperback -11.3843 1.34604 2.17564
thorax -10.2777 0.267491 -0.936971
lowerneck -13.0141 -5.25617 -1.33104
upperneck 23.926 -7.82531 2.60809
head 9.89756 -3.4692 0.161382
rclavicle -1.59028e-015 9.14409e-015
rhumerus -53.8398 6.05566 -93.7183
rradius 112.394
rwrist -30.0646
rhand 17.8585 -66.7234
rfingers 7.12502
rthumb 42.5351 811.132
lclavicle -1.59028e-015 9.14409e-015
lhumerus -52.6546 20.2925 71.0998
lradius 92.1628
lwrist 63.8756
lhand -26.448 17.7783
lfingers 7.12502
lthumb 0.113038 47.758
rfemur -1.16158 23.1985 25.3804
rtibia 2.65046
rfoot -15.517 -28.6237
rtoes 4.96409
lfemur 6.29645 -43.6499 -12.5333
ltibia -4.50535
lfoot -15.698 48.8091
ltoes 1.05475
1266
root 0.819144 17.4051 9.56167 8.88517 1.94537 -8.55063
lowerback -3.18943 0.737903 5.71277
upperback -11.3988 1.34435 2.14574
thorax -10.2971 0.266013 -0.959125
lowerneck -13.0223 -5.27635 -1.3376
upperneck 23.9501 -7.86407 2.64789
head 9.91084 -3.48253 0.170698
rclavicle -8.34896e-015 -1.96797e-014
rhumerus -53.7898 6.15602 -93.7674
rradius 112.399
rwrist -30.0724
rhand 17.834 -66.6386
rfingers 7.12502
rthumb 42.5122 811.055
lclavicle -8.34896e-015 -1.96797e-014
lhumerus -52.6912 20.2578 71.0231
lradius 92.1409
lwrist 63.8004
lhand -26.4442 17.673
lfingers 7.12502
lthumb 0.116707 47.6527
rfemur -1.17649 23.1727 25.339
rtibia 2.64641
rfoot -15.504 -28.6548
rtoes 4.93154
lfemur 6.21696 -43.6416 -12.5137
ltibia -4.48622
lfoot -15.7107 48.7431
ltoes 1.08626
1267
root 0.817945 17.4045 9.56235 8.89989 1.94656 -8.47814
lowerback -3.081 0.754546 5.66836
upperback -11.4698 1.37538 2.10664
thorax -10.4411 0.278853 -0.978757
lowerneck -12.9598 -5.30599 -1.45037
upperneck 24.0085 -7.9127 2.76059
head 9.93128 -3.50217 0.222949
rclavicle -2.04251e-014 -9.93923e-016
rhumerus -53.857 6.22217 -93.8039
rradius 112.433
rwrist -30.0977
rhand 17.9093 -66.5955
rfingers 7.12502
rthumb 42.5827 810.987
lclavicle -2.04251e-014 -9.93923e-016
lhumerus -52.8346 20.2144 70.928
lradius 92.1256
lwrist 63.7111
lhand -26.5586 17.4092
lfingers 7.12502
lthumb 0.00625564 47.389
rfemur -1.18371 23.1176 25.2507
rtibia 2.63583
rfoot -15.4981 -28.6092
rtoes 5.00472
lfemur 6.19321 -43.658 -12.5913
ltibia -4.45735
lfoot -15.8754 48.729
ltoes 1.32815
1268
root 0.817695 17.4045 9.56297 8.89053 1.93866 -8.46455
lowerback -3.36948 0.738386 5.56752
upperback -11.2166 1.32017 2.19463
thorax -9.98245 0.279692 -0.825077
lowerneck -13.0862 -5.31039 -1.61504
upperneck 23.82 -7.90125 2.89151
head 9.90096 -3.49758 0.294999
rclavicle 2.88238e-015 1.68967e-014
rhumerus -53.3467 6.53445 -93.7252
rradius 112.404
rwrist -30.149
rhand 17.9183 -66.6888
rfingers 7.12502
rthumb 42.5911 811.078
lclavicle 2.88238e-015 1.68967e-014
lhumerus -52.4658 20.5599 71.0551
lradius 92.1075
lwrist 63.7417
lhand -26.9467 17.0838
lfingers 7.12502
lthumb -0.368641 47.0632
rfemur -1.17685 23.0679 25.2347
rtibia 2.63704
rfoot -15.5129 -28.5466
rtoes 5.16304
lfemur 6.20971 -43.6622 -12.6322
ltibia -4.42892
lfoot -15.9206 48.7347
ltoes 1.38807
1269
root 0.816553 17.4043 9.56431 8.88293 1.98345 -8.49126
lowerback -3.99086 0.648048 5.31953
upperback -10.7241 1.13441 2.43505
thorax -9.06925 0.247825 -0.423024
lowerneck -13.4243 -5.25993 -1.68628
upperneck 23.4914 -7.78122 2.86085
head 9.84635 -3.45139 0.305362
rclavicle 2.70844e-014 -1.59028e-015
rhumerus -52.4524 7.09404 -93.5314
rradius 112.301
rwrist -30.1472
rhand 17.9134 -66.7211
rfingers 7.12502
rthumb 42.5865 811.112
lclavicle 2.70844e-014 -1.59028e-015
lhumerus -51.7594 21.2614 71.3241
lradius 92.1005
lwrist 63.8457
lhand -27.1791 17.0756
lfingers 7.12502
lthumb -0.593037 47.0545
rfemur -1.1596 23.1401 25.2917
rtibia 2.65104
rfoot -15.5914 -28.6357
rtoes 5.42579
lfemur 6.19725 -43.6527 -12.5781
ltibia -4.42869
lfoot -15.7639 48.7033
ltoes 1.1799
1270
root 0.813303 17.4042 9.56732 8.90659 2.01993 -8.46653
lowerback -3.43521 0.771389 5.54031
upperback -11.1388 1.35503 2.19439
thorax -9.85201 0.303498 -0.812111
lowerneck -13.1025 -5.38982 -1.72901
upperneck 23.8405 -8.028 3.04747
head 9.92735 -3.54757 0.350472
rclavicle -1.89342e-014 5.42682e-014
rhumerus -53.179 6.62452 -93.6908
rradius 112.379
rwrist -29.9856
rhand 17.9025 -66.5999
rfingers 7.12502
rthumb 42.5763 810.994
lclavicle -1.89342e-014 5.42682e-014
lhumerus -52.3012 20.6079 70.9812
lradius 92.1436
lwrist 63.9541
lhand -26.7892 17.4029
lfingers 7.12502
lthumb -0.216487 47.3825
rfemur -1.1579 23.2688 25.2897
rtibia 2.64643
rfoot -15.6581 -28.7845
rtoes 5.51581
lfemur 6.18372 -43.7305 -12.5777
ltibia -4.44586
lfoot -15.7391 48.7499
ltoes 1.08304
1271
root 0.811377 17.4045 9.57028 8.90682 2.0595 -8.43843
lowerback -3.26709 0.811488 5.59281
upperback -11.2614 1.42486 2.11263
thorax -10.0865 0.321865 -0.933018
lowerneck -12.9803 -5.39353 -1.7999
upperneck 24.0395 -8.09456 3.29549
head 9.99256 -3.55439 0.440691
rclavicle -1.80894e-014 3.75703e-014
rhumerus -53.4152 6.49313 -93.7404
rradius 112.402
rwrist -29.9587
rhand 17.7682 -66.5531
rfingers 7.12502
rthumb 42.4506 810.99
lclavicle -1.80894e-014 3.75703e-014
lhumerus -52.4653 20.4371 70.8364
lradius 92.1601
lwrist 64.0387
lhand -26.848 17.277
lfingers 7.12502
lthumb -0.273245 47.2565
rfemur -1.13791 23.2461 25.2719
rtibia 2.63316
rfoot -15.6646 -28.805
rtoes 5.38425
lfemur 6.20741 -43.8134 -12.6203
ltibia -4.45552
lfoot -15.864 48.7864
ltoes 1.22563
